<svg xmlns="http://www.w3.org/2000/svg" viewBox="0 0 50 50"><defs><style>.cls-1{fill:#fff;}</style></defs><title>Recurso 1</title><g id="Capa_2" data-name="Capa 2"><g id="Layer_2" data-name="Layer 2"><path class="cls-1" d="M29.56,40.9A20.45,20.45,0,0,1,15.1,6,20.45,20.45,0,1,1,44,34.91,20.33,20.33,0,0,1,29.56,40.9Zm0-38.57a18.12,18.12,0,1,0,0,36.24A18.12,18.12,0,0,0,42.37,7.64,18,18,0,0,0,29.56,2.33Z"/><path class="cls-1" d="M2.91,50A2.91,2.91,0,0,1,.85,45L9.9,36A2.91,2.91,0,0,1,14,40.11l-9,9A2.87,2.87,0,0,1,2.91,50Z"/></g></g></svg>